<?xml version="1.0" encoding="UTF-8" standalone="no"?>
<!-- Generator: Adobe Illustrator 16.0.0, SVG Export Plug-In . SVG Version: 6.00 Build 0)  -->

<svg
   xmlns:dc="http://purl.org/dc/elements/1.1/"
   xmlns:cc="http://creativecommons.org/ns#"
   xmlns:rdf="http://www.w3.org/1999/02/22-rdf-syntax-ns#"
   xmlns:svg="http://www.w3.org/2000/svg"
   xmlns="http://www.w3.org/2000/svg"
   xmlns:sodipodi="http://sodipodi.sourceforge.net/DTD/sodipodi-0.dtd"
   xmlns:inkscape="http://www.inkscape.org/namespaces/inkscape"
   version="1.1"
   x="0px"
   y="0px"
   width="64"
   height="64"
   viewBox="0 0 64 64"
   xml:space="preserve"
   id="svg2"
   inkscape:version="0.48.4 r9939"
   sodipodi:docname="kalender.svg"><metadata
     id="metadata108"><rdf:RDF><cc:Work
         rdf:about=""><dc:format>image/svg+xml</dc:format><dc:type
           rdf:resource="http://purl.org/dc/dcmitype/StillImage" /><dc:title></dc:title></cc:Work></rdf:RDF></metadata><defs
     id="defs106" /><sodipodi:namedview
     pagecolor="#ffffff"
     bordercolor="#666666"
     borderopacity="1"
     objecttolerance="10"
     gridtolerance="10"
     guidetolerance="10"
     inkscape:pageopacity="0"
     inkscape:pageshadow="2"
     inkscape:window-width="640"
     inkscape:window-height="480"
     id="namedview104"
     showgrid="false"
     inkscape:zoom="3.5613316"
     inkscape:cx="26.919071"
     inkscape:cy="39.204486"
     inkscape:window-x="0"
     inkscape:window-y="0"
     inkscape:window-maximized="0"
     inkscape:current-layer="svg2" /><g
     id="Guides_For_Artboard"
     style="fill:#ffffff"
     transform="matrix(1,0,0,0.99093461,0,-443.9274)" /><g
     id="_x30_"
     style="fill:#ffffff"
     transform="matrix(1,0,0,0.99093461,0,-443.9274)" /><g
     id="_x31_"
     style="fill:#ffffff"
     transform="matrix(1,0,0,0.99093461,0,-443.9274)" /><g
     id="_x32_"
     style="fill:#ffffff"
     transform="matrix(1,0,0,0.99093461,0,-443.9274)" /><g
     id="_x33_"
     style="fill:#ffffff"
     transform="matrix(1,0,0,0.99093461,0,-443.9274)" /><g
     id="_x34_"
     style="fill:#ffffff"
     transform="matrix(1,0,0,0.99093461,0,-443.9274)" /><g
     id="_x35_"
     style="fill:#ffffff"
     transform="matrix(1,0,0,0.99093461,0,-443.9274)" /><g
     id="_x36_"
     style="fill:#ffffff"
     transform="matrix(1,0,0,0.99093461,0,-443.9274)" /><g
     id="_x37_"
     style="fill:#ffffff"
     transform="matrix(1,0,0,0.99093461,0,-443.9274)" /><g
     id="_x38_"
     style="fill:#ffffff"
     transform="matrix(1,0,0,0.99093461,0,-443.9274)" /><g
     id="_x39_"
     style="fill:#ffffff"
     transform="matrix(1,0,0,0.99093461,0,-443.9274)" /><g
     id="_x31_0"
     style="fill:#ffffff"
     transform="matrix(1,0,0,0.99093461,0,-443.9274)" /><g
     id="_x31_1"
     style="fill:#ffffff"
     transform="matrix(1,0,0,0.99093461,0,-443.9274)" /><g
     id="_x31_2"
     style="fill:#ffffff"
     transform="matrix(1,0,0,0.99093461,0,-443.9274)" /><g
     id="_x31_3"
     style="fill:#ffffff"
     transform="matrix(1,0,0,0.99093461,0,-443.9274)" /><g
     id="_x31_4"
     style="fill:#ffffff"
     transform="matrix(1,0,0,0.99093461,0,-443.9274)" /><g
     id="_x31_5"
     style="fill:#ffffff"
     transform="matrix(0.12761135,0,0,0.12886322,-0.55674542,-1.0182846)"><g
       id="g21"
       style="fill:#ffffff"><path
         d="m 132.029,128.62 h 6.938 c 10.544,0 19.091,-8.55 19.091,-19.091 V 56.846 37.14 c 0,-10.541 -8.547,-19.09 -19.091,-19.09 h -6.938 c -10.543,0 -19.09,8.549 -19.09,19.09 v 19.707 52.682 c 0,10.541 8.547,19.091 19.09,19.091 z"
         id="path23"
         style="fill:#ffffff"
         inkscape:connector-curvature="0" /><path
         d="m 376.897,128.147 h 6.938 c 10.543,0 19.09,-8.549 19.09,-19.091 v -57.21 -15.18 c 0,-10.54 -8.547,-19.089 -19.09,-19.089 h -6.938 c -10.544,0 -19.091,8.549 -19.091,19.089 v 15.18 57.209 c 0.001,10.543 8.548,19.092 19.091,19.092 z"
         id="path25"
         style="fill:#ffffff"
         inkscape:connector-curvature="0" /><path
         d="m 467.44,56.846 h -48.996 v 57.209 c 0,19.084 -15.525,29.61 -34.608,29.61 h -6.938 c -19.084,0 -34.609,-15.526 -34.609,-34.61 V 56.846 H 173.577 v 52.682 c 0,19.084 -15.525,34.61 -34.609,34.61 h -6.938 c -19.083,0 -34.608,-15.526 -34.608,-34.61 V 56.846 H 44.56 c -17.113,0 -31.036,13.923 -31.036,31.037 v 375.03 c 0,17.114 13.923,31.037 31.036,31.037 h 422.88 c 17.113,0 31.036,-13.923 31.036,-31.037 V 87.883 C 498.477,70.77 484.554,56.846 467.44,56.846 z m 0,406.067 H 44.561 L 44.56,179.7 h 422.885 l 0.016,283.212 c -0.001,0 -0.008,0.001 -0.021,0.001 z"
         id="path27"
         style="fill:#ffffff"
         inkscape:connector-curvature="0" /><path
         d="m 272.022,274.698 h 55.726 c 2.209,0 4,-1.791 4,-4 v -48.255 c 0,-2.209 -1.791,-4 -4,-4 h -55.726 c -2.209,0 -4,1.791 -4,4 v 48.255 c 0,2.209 1.791,4 4,4 z"
         id="path29"
         style="fill:#ffffff"
         inkscape:connector-curvature="0" /><path
         d="m 362.967,274.698 h 55.726 c 2.209,0 4,-1.791 4,-4 v -48.255 c 0,-2.209 -1.791,-4 -4,-4 h -55.726 c -2.209,0 -4,1.791 -4,4 v 48.255 c 0,2.209 1.791,4 4,4 z"
         id="path31"
         style="fill:#ffffff"
         inkscape:connector-curvature="0" /><path
         d="m 90.135,353.698 h 55.726 c 2.209,0 4,-1.791 4,-4 v -48.255 c 0,-2.209 -1.791,-4 -4,-4 H 90.135 c -2.209,0 -4,1.791 -4,4 v 48.255 c 0,2.209 1.791,4 4,4 z"
         id="path33"
         style="fill:#ffffff"
         inkscape:connector-curvature="0" /><path
         d="m 181.079,353.698 h 55.726 c 2.209,0 4,-1.791 4,-4 v -48.255 c 0,-2.209 -1.791,-4 -4,-4 h -55.726 c -2.209,0 -4,1.791 -4,4 v 48.255 c 0,2.209 1.791,4 4,4 z"
         id="path35"
         style="fill:#ffffff"
         inkscape:connector-curvature="0" /><path
         d="m 272.023,353.698 h 55.726 c 2.209,0 4,-1.791 4,-4 v -48.255 c 0,-2.209 -1.791,-4 -4,-4 h -55.726 c -2.209,0 -4,1.791 -4,4 v 48.255 c 0,2.209 1.791,4 4,4 z"
         id="path37"
         style="fill:#ffffff"
         inkscape:connector-curvature="0" /><path
         d="m 362.968,353.698 h 55.726 c 2.209,0 4,-1.791 4,-4 v -48.255 c 0,-2.209 -1.791,-4 -4,-4 h -55.726 c -2.209,0 -4,1.791 -4,4 v 48.255 c 0,2.209 1.791,4 4,4 z"
         id="path39"
         style="fill:#ffffff"
         inkscape:connector-curvature="0" /><path
         d="M 145.861,376.443 H 90.136 c -2.209,0 -4,1.791 -4,4 v 48.255 c 0,2.209 1.791,4 4,4 h 55.726 c 2.209,0 4,-1.791 4,-4 v -48.255 c -0.001,-2.209 -1.792,-4 -4.001,-4 z"
         id="path41"
         style="fill:#ffffff"
         inkscape:connector-curvature="0" /><path
         d="M 236.806,376.443 H 181.08 c -2.209,0 -4,1.791 -4,4 v 48.255 c 0,2.209 1.791,4 4,4 h 55.726 c 2.209,0 4,-1.791 4,-4 v -48.255 c 0,-2.209 -1.791,-4 -4,-4 z"
         id="path43"
         style="fill:#ffffff"
         inkscape:connector-curvature="0" /><path
         d="m 327.75,376.443 h -55.726 c -2.209,0 -4,1.791 -4,4 v 48.255 c 0,2.209 1.791,4 4,4 h 55.726 c 2.209,0 4,-1.791 4,-4 v -48.255 c 0,-2.209 -1.791,-4 -4,-4 z"
         id="path45"
         style="fill:#ffffff"
         inkscape:connector-curvature="0" /><path
         d="m 418.694,376.443 h -55.726 c -2.209,0 -4,1.791 -4,4 v 48.255 c 0,2.209 1.791,4 4,4 h 55.726 c 2.209,0 4,-1.791 4,-4 v -48.255 c 0,-2.209 -1.791,-4 -4,-4 z"
         id="path47"
         style="fill:#ffffff"
         inkscape:connector-curvature="0" /></g></g><g
     id="_x31_6"
     style="fill:#ffffff"
     transform="matrix(1,0,0,0.99093461,0,-443.9274)" /><g
     id="_x31_7"
     style="fill:#ffffff"
     transform="matrix(1,0,0,0.99093461,0,-443.9274)" /><g
     id="_x31_8"
     style="fill:#ffffff"
     transform="matrix(1,0,0,0.99093461,0,-443.9274)" /><g
     id="_x31_9"
     style="fill:#ffffff"
     transform="matrix(1,0,0,0.99093461,0,-443.9274)" /><g
     id="_x32_0"
     style="fill:#ffffff"
     transform="matrix(1,0,0,0.99093461,0,-443.9274)" /><g
     id="_x32_1"
     style="fill:#ffffff"
     transform="matrix(1,0,0,0.99093461,0,-443.9274)" /><g
     id="_x32_2"
     style="fill:#ffffff"
     transform="matrix(1,0,0,0.99093461,0,-443.9274)" /><g
     id="_x32_3"
     style="fill:#ffffff"
     transform="matrix(1,0,0,0.99093461,0,-443.9274)" /><g
     id="_x32_4"
     style="fill:#ffffff"
     transform="matrix(1,0,0,0.99093461,0,-443.9274)" /><g
     id="_x32_5"
     style="fill:#ffffff"
     transform="matrix(1,0,0,0.99093461,0,-443.9274)" /><g
     id="_x32_6"
     style="fill:#ffffff"
     transform="matrix(1,0,0,0.99093461,0,-443.9274)" /><g
     id="_x32_7"
     style="fill:#ffffff"
     transform="matrix(1,0,0,0.99093461,0,-443.9274)" /><g
     id="_x32_8"
     style="fill:#ffffff"
     transform="matrix(1,0,0,0.99093461,0,-443.9274)" /><g
     id="_x32_9"
     style="fill:#ffffff"
     transform="matrix(1,0,0,0.99093461,0,-443.9274)" /><g
     id="_x33_0"
     style="fill:#ffffff"
     transform="matrix(1,0,0,0.99093461,0,-443.9274)" /><g
     id="_x33_1"
     style="fill:#ffffff"
     transform="matrix(1,0,0,0.99093461,0,-443.9274)" /><g
     id="_x33_2"
     style="fill:#ffffff"
     transform="matrix(1,0,0,0.99093461,0,-443.9274)" /><g
     id="_x33_3"
     style="fill:#ffffff"
     transform="matrix(1,0,0,0.99093461,0,-443.9274)" /><g
     id="_x33_4"
     style="fill:#ffffff"
     transform="matrix(1,0,0,0.99093461,0,-443.9274)" /><g
     id="_x33_5"
     style="fill:#ffffff"
     transform="matrix(1,0,0,0.99093461,0,-443.9274)" /><g
     id="_x33_6"
     style="fill:#ffffff"
     transform="matrix(1,0,0,0.99093461,0,-443.9274)" /><g
     id="_x33_7"
     style="fill:#ffffff"
     transform="matrix(1,0,0,0.99093461,0,-443.9274)" /><g
     id="_x33_8"
     style="fill:#ffffff"
     transform="matrix(1,0,0,0.99093461,0,-443.9274)" /><g
     id="_x33_9"
     style="fill:#ffffff"
     transform="matrix(1,0,0,0.99093461,0,-443.9274)" /><g
     id="_x34_0"
     style="fill:#ffffff"
     transform="matrix(1,0,0,0.99093461,0,-443.9274)" /><g
     id="_x34_1"
     style="fill:#ffffff"
     transform="matrix(1,0,0,0.99093461,0,-443.9274)" /><g
     id="_x34_2"
     style="fill:#ffffff"
     transform="matrix(1,0,0,0.99093461,0,-443.9274)" /><g
     id="_x34_3"
     style="fill:#ffffff"
     transform="matrix(1,0,0,0.99093461,0,-443.9274)" /><g
     id="_x34_4"
     style="fill:#ffffff"
     transform="matrix(1,0,0,0.99093461,0,-443.9274)" /><g
     id="_x34_5"
     style="fill:#ffffff"
     transform="matrix(1,0,0,0.99093461,0,-443.9274)" /><g
     id="_x34_6"
     style="fill:#ffffff"
     transform="matrix(1,0,0,0.99093461,0,-443.9274)" /><g
     id="_x34_7"
     style="fill:#ffffff"
     transform="matrix(1,0,0,0.99093461,0,-443.9274)" /><g
     id="_x34_8"
     style="fill:#ffffff"
     transform="matrix(1,0,0,0.99093461,0,-443.9274)" /><g
     id="_x34_9"
     style="fill:#ffffff"
     transform="matrix(1,0,0,0.99093461,0,-443.9274)" /><g
     id="_x35_0"
     style="fill:#ffffff"
     transform="matrix(1,0,0,0.99093461,0,-443.9274)" /><g
     id="_x35_1"
     style="fill:#ffffff"
     transform="matrix(1,0,0,0.99093461,0,-443.9274)" /><g
     id="_x35_2"
     style="fill:#ffffff"
     transform="matrix(1,0,0,0.99093461,0,-443.9274)" /><g
     id="_x35_3"
     style="fill:#ffffff"
     transform="matrix(1,0,0,0.99093461,0,-443.9274)" /><g
     id="_x35_4"
     style="fill:#ffffff"
     transform="matrix(1,0,0,0.99093461,0,-443.9274)" /><g
     id="_x35_5"
     style="fill:#ffffff"
     transform="matrix(1,0,0,0.99093461,0,-443.9274)" /><g
     id="_x35_6"
     style="fill:#ffffff"
     transform="matrix(1,0,0,0.99093461,0,-443.9274)" /><g
     id="_x35_7"
     style="fill:#ffffff"
     transform="matrix(1,0,0,0.99093461,0,-443.9274)" /><g
     id="_x35_8"
     style="fill:#ffffff"
     transform="matrix(1,0,0,0.99093461,0,-443.9274)" /><g
     id="_x35_9"
     style="fill:#ffffff"
     transform="matrix(1,0,0,0.99093461,0,-443.9274)" /><g
     id="_x36_0"
     style="fill:#ffffff"
     transform="matrix(1,0,0,0.99093461,0,-443.9274)" /><g
     id="_x36_1"
     style="fill:#ffffff"
     transform="matrix(1,0,0,0.99093461,0,-443.9274)" /><g
     id="_x36_2"
     style="fill:#ffffff"
     transform="matrix(1,0,0,0.99093461,0,-443.9274)" /><g
     id="_x36_3"
     style="fill:#ffffff"
     transform="matrix(1,0,0,0.99093461,0,-443.9274)" /><g
     id="_x36_4"
     style="fill:#ffffff"
     transform="matrix(1,0,0,0.99093461,0,-443.9274)" /><g
     id="_x36_5"
     style="fill:#ffffff"
     transform="matrix(1,0,0,0.99093461,0,-443.9274)" /><g
     id="_x36_6"
     style="fill:#ffffff"
     transform="matrix(1,0,0,0.99093461,0,-443.9274)" /><g
     id="_x36_7"
     style="fill:#ffffff"
     transform="matrix(1,0,0,0.99093461,0,-443.9274)" /><g
     id="_x36_8"
     style="fill:#ffffff"
     transform="matrix(1,0,0,0.99093461,0,-443.9274)" /><g
     id="_x36_9"
     style="fill:#ffffff"
     transform="matrix(1,0,0,0.99093461,0,-443.9274)" /><g
     id="_x37_0"
     style="fill:#ffffff"
     transform="matrix(1,0,0,0.99093461,0,-443.9274)" /></svg>