<?xml version="1.0" encoding="UTF-8" standalone="no"?>
<!-- Generated by IcoMoon.io -->

<svg
   xmlns:dc="http://purl.org/dc/elements/1.1/"
   xmlns:cc="http://creativecommons.org/ns#"
   xmlns:rdf="http://www.w3.org/1999/02/22-rdf-syntax-ns#"
   xmlns:svg="http://www.w3.org/2000/svg"
   xmlns="http://www.w3.org/2000/svg"
   xmlns:sodipodi="http://sodipodi.sourceforge.net/DTD/sodipodi-0.dtd"
   xmlns:inkscape="http://www.inkscape.org/namespaces/inkscape"
   version="1.1"
   width="64"
   height="64"
   viewBox="0 0 64 64"
   id="svg2"
   inkscape:version="0.48.4 r9939"
   sodipodi:docname="medis.svg">
  <metadata
     id="metadata18">
    <rdf:RDF>
      <cc:Work
         rdf:about="">
        <dc:format>image/svg+xml</dc:format>
        <dc:type
           rdf:resource="http://purl.org/dc/dcmitype/StillImage" />
        <dc:title></dc:title>
      </cc:Work>
    </rdf:RDF>
  </metadata>
  <defs
     id="defs16" />
  <sodipodi:namedview
     pagecolor="#ffffff"
     bordercolor="#666666"
     borderopacity="1"
     objecttolerance="10"
     gridtolerance="10"
     guidetolerance="10"
     inkscape:pageopacity="0"
     inkscape:pageshadow="2"
     inkscape:window-width="640"
     inkscape:window-height="480"
     id="namedview14"
     showgrid="false"
     inkscape:zoom="3.6875"
     inkscape:cx="32"
     inkscape:cy="31.939106"
     inkscape:window-x="0"
     inkscape:window-y="0"
     inkscape:window-maximized="0"
     inkscape:current-layer="svg2" />
  <path
     d="m 43.893574,1.3571141 c -10.457403,0 -18.934769,6.709277 -18.934769,14.9855649 0,4.930628 3.022269,9.291392 7.665885,12.022409 -0.454104,2.490016 -1.900421,5.4235 -3.922615,7.44577 4.937411,-0.368478 9.282991,-1.784275 12.128383,-4.696101 0.999459,0.129017 2.017723,0.213487 3.063193,0.213487 10.45748,0 18.934843,-6.7092 18.934843,-14.985565 -7e-5,-8.2762879 -8.47744,-14.9855649 -18.93492,-14.9855649 z m 0.329094,5.100031 c 1.394372,0 2.524698,1.130326 2.524698,2.524698 0,1.3942939 -1.130326,2.5246199 -2.524698,2.5246199 -1.394295,0 -2.52462,-1.130326 -2.52462,-2.5246199 0,-1.394372 1.130325,-2.524698 2.52462,-2.524698 z m 4.151207,18.6798169 h -8.30226 v -2.173638 h 2.254023 V 15.87925 h -2.254023 v -2.173561 h 6.249393 v 9.257635 h 2.05279 v 2.173638 z M 40.218589,50.826558 C 34.215207,46.001825 32.536443,48.373536 29.812516,51.097 27.910862,52.999425 23.098384,49.026869 18.943092,44.871268 14.787491,40.715204 10.815706,35.903498 12.717205,34.001535 15.441286,31.277917 17.812303,29.59815 12.986261,23.596541 8.1617595,17.592542 4.9457335,22.202015 2.3070475,24.840855 -0.73926853,27.886092 2.1465855,39.23459 13.362522,50.452377 24.58,61.668545 35.9285,64.552395 38.973042,61.508315 c 2.638224,-2.63899 7.249006,-5.854713 1.245547,-10.681757 z M 8.6650335,26.851642 c -0.081,0.03314 -0.199845,0.08177 -0.351059,0.14366 -0.286242,0.109673 -0.628515,0.233757 -1.009324,0.399461 -0.177726,0.08562 -0.377032,0.178343 -0.558766,0.292562 -0.188439,0.112524 -0.375799,0.240154 -0.544662,0.397996 -0.184431,0.149363 -0.327784,0.340115 -0.493718,0.540114 -0.123314,0.220578 -0.282466,0.445857 -0.368477,0.716685 -0.124778,0.256338 -0.169557,0.551521 -0.244085,0.842079 -0.05742,0.294721 -0.06744,0.601002 -0.103969,0.900115 -0.0037,0.604623 0.01973,1.185278 0.09765,1.680228 0.04077,0.503044 0.168478,0.928091 0.218882,1.222658 0.06173,0.295568 0.09696,0.464354 0.09696,0.464354 0,0 -0.09079,-0.146821 -0.249633,-0.403777 -0.150597,-0.264739 -0.40632,-0.604931 -0.630828,-1.08863 -0.258728,-0.470365 -0.500038,-1.049016 -0.729633,-1.700035 -0.08169,-0.335876 -0.192523,-0.684316 -0.253872,-1.057725 -0.04324,-0.377418 -0.114682,-0.766704 -0.08593,-1.176646 -0.01241,-0.409248 0.07129,-0.822812 0.147361,-1.240769 0.121001,-0.404855 0.249941,-0.815182 0.447321,-1.180345 0.180346,-0.373179 0.407475,-0.710982 0.634295,-1.00547 0.228285,-0.303584 0.463892,-0.551985 0.685857,-0.783121 0.443005,-0.435837 0.82759,-0.754373 1.051713,-0.949748 0.128246,-0.107437 0.180809,-0.165472 0.237996,-0.216493 0.05064,-0.04732 0.07753,-0.0726 0.07753,-0.0726 l 2.058725,3.219957 c 2.31e-4,7.7e-5 -0.04524,0.01935 -0.130327,0.0555 z M 39.562713,57.440575 c -0.201926,0.251483 -0.518766,0.64046 -0.948283,1.08123 -0.228979,0.21703 -0.465125,0.45226 -0.759074,0.6743 -0.275299,0.23006 -0.610019,0.44061 -0.950904,0.63815 -0.351445,0.19314 -0.72524,0.35884 -1.120152,0.48215 -0.390752,0.119 -0.796377,0.21503 -1.194604,0.2474 l -0.592446,0.0423 -0.574642,-0.0309 c -0.378111,-0.005 -0.730328,-0.10551 -1.069517,-0.162 -0.338343,-0.0628 -0.645163,-0.18852 -0.938881,-0.27283 -0.293718,-0.0792 -0.557225,-0.22405 -0.800924,-0.32054 -0.493641,-0.19599 -0.847244,-0.42243 -1.11391,-0.56262 -0.261888,-0.14428 -0.411483,-0.22682 -0.411483,-0.22682 0,0 0.168786,0.026 0.464122,0.0713 0.293488,0.0394 0.721927,0.13194 1.218188,0.14196 0.249865,0.005 0.506126,0.0488 0.790133,0.0224 0.280231,-0.0217 0.57264,-0.008 0.865201,-0.06 0.290559,-0.0581 0.592138,-0.0747 0.871907,-0.18034 l 0.420269,-0.12894 0.389903,-0.1822 c 1.02944,-0.49865 1.589593,-1.377107 1.91414,-2.110363 0.160539,-0.378188 0.275607,-0.712138 0.362388,-0.973409 0.09441,-0.275067 0.148362,-0.432215 0.148362,-0.432215 l 3.334639,1.867435 c -7.7e-5,7.7e-5 -0.110829,0.136261 -0.304432,0.374489 z"
     id="path3"
     inkscape:connector-curvature="0"
     style="fill:#ffffff" />
</svg>
