<?xml version="1.0" encoding="UTF-8" standalone="no"?>
<!-- Generator: Adobe Illustrator 17.1.0, SVG Export Plug-In . SVG Version: 6.00 Build 0)  -->

<svg
   xmlns:dc="http://purl.org/dc/elements/1.1/"
   xmlns:cc="http://creativecommons.org/ns#"
   xmlns:rdf="http://www.w3.org/1999/02/22-rdf-syntax-ns#"
   xmlns:svg="http://www.w3.org/2000/svg"
   xmlns="http://www.w3.org/2000/svg"
   xmlns:sodipodi="http://sodipodi.sourceforge.net/DTD/sodipodi-0.dtd"
   xmlns:inkscape="http://www.inkscape.org/namespaces/inkscape"
   version="1.1"
   id="Layer_1"
   x="0px"
   y="0px"
   viewBox="0 0 64 64"
   xml:space="preserve"
   inkscape:version="0.48.4 r9939"
   width="100%"
   height="100%"
   sodipodi:docname="call36.svg"><metadata
     id="metadata9"><rdf:RDF><cc:Work
         rdf:about=""><dc:format>image/svg+xml</dc:format><dc:type
           rdf:resource="http://purl.org/dc/dcmitype/StillImage" /><dc:title></dc:title></cc:Work></rdf:RDF></metadata><defs
     id="defs7" /><sodipodi:namedview
     pagecolor="#ffffff"
     bordercolor="#666666"
     borderopacity="1"
     objecttolerance="10"
     gridtolerance="10"
     guidetolerance="10"
     inkscape:pageopacity="0"
     inkscape:pageshadow="2"
     inkscape:window-width="640"
     inkscape:window-height="480"
     id="namedview5"
     showgrid="false"
     inkscape:zoom="2.36"
     inkscape:cx="54.56337"
     inkscape:cy="45.137268"
     inkscape:window-x="0"
     inkscape:window-y="0"
     inkscape:window-maximized="0"
     inkscape:current-layer="Layer_1" /><path
     d="m 43.8749,1.8825763 c -10.457403,0 -18.934769,6.7092769 -18.934769,14.9855647 0,4.930628 3.022269,9.291392 7.665885,12.022409 -0.454104,2.490016 -1.900421,5.4235 -3.922615,7.44577 4.937411,-0.368478 9.282991,-1.784275 12.128383,-4.696101 0.999459,0.129017 2.017723,0.213487 3.063193,0.213487 10.45748,0 18.934846,-6.7092 18.934846,-14.985565 C 62.809746,8.5918532 54.33238,1.8825763 43.8749,1.8825763 z m 0.329094,5.1000308 c 1.394372,0 2.524698,1.1303258 2.524698,2.5246976 0,1.3942943 -1.130326,2.5246203 -2.524698,2.5246203 -1.394295,0 -2.52462,-1.130326 -2.52462,-2.5246203 0,-1.3943718 1.130325,-2.5246976 2.52462,-2.5246976 z m 4.151207,18.6798169 h -8.30226 v -2.173638 h 2.254023 v -7.084074 h -2.254023 v -2.173561 h 6.249393 v 9.257635 h 2.05279 v 2.173638 z M 40.199915,51.35202 C 34.196533,46.527287 32.517769,48.898998 29.793842,51.622462 27.892188,53.524887 23.07971,49.552331 18.924418,45.39673 14.768817,41.240666 10.797032,36.42896 12.698531,34.526997 15.422612,31.803379 17.793629,30.123612 12.967587,24.122003 8.1430846,18.118004 4.9270586,22.727477 2.2883729,25.366317 -0.75794249,28.411554 2.1279106,39.760052 13.343848,50.977839 24.561326,62.194007 35.909826,65.077857 38.954368,62.033776 41.592592,59.394782 46.203374,56.179064 40.199915,51.35202 z M 8.6463594,27.377104 c -0.081002,0.03314 -0.1998456,0.08177 -0.3510592,0.14366 -0.2862424,0.109673 -0.6285155,0.233757 -1.0093241,0.399461 -0.1777262,0.08562 -0.3770323,0.178343 -0.558766,0.292562 -0.1884391,0.112524 -0.3757991,0.240154 -0.5446621,0.397996 -0.1844313,0.149363 -0.3277836,0.340115 -0.4937179,0.540114 -0.1233139,0.220578 -0.2824658,0.445857 -0.3684773,0.716685 -0.1247782,0.256338 -0.1695565,0.551521 -0.2440844,0.842079 -0.057418,0.294721 -0.067437,0.601002 -0.103969,0.900115 -0.0037,0.604623 0.01973,1.185278 0.097649,1.680228 0.04077,0.503044 0.1684776,0.928091 0.2188821,1.222658 0.061734,0.295568 0.096956,0.464354 0.096956,0.464354 0,0 -0.09079,-0.146821 -0.2496336,-0.403777 C 4.9855556,34.3085 4.7298335,33.968308 4.5053252,33.484609 4.2465972,33.014244 4.0052874,32.435593 3.7756923,31.784574 3.6939969,31.448698 3.5831686,31.100258 3.5218199,30.726849 3.478583,30.349431 3.407138,29.960145 3.4358855,29.550203 3.4234765,29.140955 3.5071755,28.727391 3.5832456,28.309434 3.7042473,27.904579 3.8331875,27.494252 4.0305667,27.129089 4.2109133,26.75591 4.438042,26.418107 4.6648625,26.123619 4.8931473,25.820035 5.1287539,25.571634 5.3507188,25.340498 5.793724,24.904661 6.1783091,24.586125 6.4024321,24.39075 c 0.1282464,-0.107437 0.180809,-0.165472 0.2379958,-0.216493 0.050636,-0.04732 0.077534,-0.0726 0.077534,-0.0726 l 2.0587252,3.219957 c 2.312e-4,7.7e-5 -0.045241,0.01935 -0.1303273,0.0555 z M 39.544039,57.966037 c -0.201926,0.251483 -0.518766,0.640461 -0.948283,1.081231 -0.228979,0.217032 -0.465125,0.452254 -0.759074,0.674296 -0.275299,0.230058 -0.610019,0.440615 -0.950904,0.638149 -0.351445,0.193141 -0.72524,0.358843 -1.120152,0.482157 -0.390752,0.118998 -0.796377,0.215029 -1.194604,0.247399 l -0.592446,0.04231 -0.574642,-0.03091 c -0.378111,-0.0048 -0.730328,-0.10551 -1.069517,-0.162003 -0.338343,-0.06281 -0.645163,-0.188517 -0.938881,-0.272832 -0.293718,-0.07923 -0.557225,-0.224046 -0.800924,-0.320539 -0.493641,-0.195993 -0.847244,-0.422427 -1.11391,-0.56262 -0.261888,-0.144277 -0.411483,-0.22682 -0.411483,-0.22682 0,0 0.168786,0.02597 0.464122,0.07129 0.293488,0.03938 0.721927,0.131945 1.218188,0.141965 0.249865,0.0052 0.506126,0.04878 0.790133,0.02243 0.280231,-0.02166 0.57264,-0.0076 0.865201,-0.05996 0.290559,-0.05811 0.592138,-0.07469 0.871907,-0.180346 l 0.420269,-0.12894 0.389903,-0.182197 c 1.02944,-0.49865 1.589593,-1.377107 1.91414,-2.110363 0.160539,-0.378188 0.275607,-0.712138 0.362388,-0.973409 0.09441,-0.275067 0.148362,-0.432215 0.148362,-0.432215 l 3.334639,1.867435 c -7.7e-5,7.7e-5 -0.110829,0.136261 -0.304432,0.374489 z"
     id="path3"
     inkscape:connector-curvature="0"
     style="fill:#ffffff" /></svg>