<?xml version="1.0" encoding="UTF-8" standalone="no"?>
<!-- Generator: Adobe Illustrator 16.0.0, SVG Export Plug-In . SVG Version: 6.00 Build 0)  -->

<svg
   xmlns:dc="http://purl.org/dc/elements/1.1/"
   xmlns:cc="http://creativecommons.org/ns#"
   xmlns:rdf="http://www.w3.org/1999/02/22-rdf-syntax-ns#"
   xmlns:svg="http://www.w3.org/2000/svg"
   xmlns="http://www.w3.org/2000/svg"
   xmlns:sodipodi="http://sodipodi.sourceforge.net/DTD/sodipodi-0.dtd"
   xmlns:inkscape="http://www.inkscape.org/namespaces/inkscape"
   version="1.1"
   id="Layer_1"
   x="0px"
   y="0px"
   width="64"
   height="64"
   viewBox="0 0 64 64"
   enable-background="new 0 0 48 48"
   xml:space="preserve"
   inkscape:version="0.48.4 r9939"
   sodipodi:docname="dollar179.svg"><metadata
     id="metadata17"><rdf:RDF><cc:Work
         rdf:about=""><dc:format>image/svg+xml</dc:format><dc:type
           rdf:resource="http://purl.org/dc/dcmitype/StillImage" /><dc:title></dc:title></cc:Work></rdf:RDF></metadata><defs
     id="defs15" /><sodipodi:namedview
     pagecolor="#ffffff"
     bordercolor="#666666"
     borderopacity="1"
     objecttolerance="10"
     gridtolerance="10"
     guidetolerance="10"
     inkscape:pageopacity="0"
     inkscape:pageshadow="2"
     inkscape:window-width="1366"
     inkscape:window-height="743"
     id="namedview13"
     showgrid="false"
     inkscape:zoom="4.9166667"
     inkscape:cx="24"
     inkscape:cy="24"
     inkscape:window-x="1024"
     inkscape:window-y="0"
     inkscape:window-maximized="1"
     inkscape:current-layer="Layer_1" /><g
     id="g3"
     transform="matrix(1.3491861,0,0,1.3491861,-0.34918606,0.35716296)"
     style="fill:#ffffff"><path
       d="m 39.903,30.3 c -0.734,0.865 -1.339,1.887 -1.749,3.047 H 9.827 C 9.39,32.194 8.748,31.171 7.977,30.3 H 5.235 C 4.067,30.3 2.909,29.968 1.904,29.355 H 1 v 2.921 c 0,1.291 0.84,2.686 1.523,3.277 0.543,0.469 1.694,0.945 2.712,0.945 H 42.78 c 2.325,0 4.235,-1.898 4.235,-4.222 V 28.674 C 45.892,29.684 44.407,30.3 42.78,30.3 h -2.877 z"
       id="path5"
       inkscape:connector-curvature="0"
       style="fill:#ffffff" /><path
       d="M 42.78,2.933 H 5.235 C 2.91,2.933 1,4.781 1,7.105 v 16.862 c 0,1.291 0.839,2.693 1.523,3.286 0.543,0.47 1.694,0.945 2.712,0.945 H 42.78 c 2.325,0 4.235,-1.907 4.235,-4.231 V 7.105 C 47.016,4.781 45.105,2.933 42.78,2.933 z m 1.084,16.297 c -2.47,0.886 -4.686,2.928 -5.71,5.817 H 9.827 C 8.773,22.263 6.516,20.218 4.152,19.292 V 11.809 C 6.569,10.917 8.766,8.921 9.81,6.032 h 28.37 c 1.018,3.046 3.163,4.979 5.685,5.831 v 7.367 z"
       id="path7"
       inkscape:connector-curvature="0"
       style="fill:#ffffff" /><path
       d="m 23.973,8.085 c -4.122,0 -7.463,3.341 -7.463,7.464 0,4.122 3.341,7.464 7.463,7.464 4.123,0 7.464,-3.342 7.464,-7.464 0,-4.123 -3.341,-7.464 -7.464,-7.464 z m 0.613,11.736 v 1.391 H 23.273 V 19.917 C 22.327,19.876 21.44,19.628 20.917,19.324 l 0.408,-1.613 c 0.579,0.317 1.39,0.606 2.285,0.606 0.786,0 1.322,-0.304 1.322,-0.854 0,-0.524 -0.442,-0.855 -1.462,-1.2 -1.476,-0.497 -2.479,-1.186 -2.479,-2.524 0,-1.213 0.862,-2.165 2.333,-2.454 V 9.972 h 1.366 v 1.218 c 0.893,0.041 1.533,0.234 1.987,0.455 l -0.404,1.558 c -0.359,-0.151 -0.996,-0.469 -1.988,-0.469 -0.896,0 -1.187,0.386 -1.187,0.772 0,0.455 0.48,0.744 1.653,1.186 1.641,0.579 2.295,1.337 2.295,2.579 0.002,1.227 -0.884,2.275 -2.46,2.55 z"
       id="path9"
       inkscape:connector-curvature="0"
       style="fill:#ffffff" /><path
       d="m 39.903,38.6 c -0.734,0.865 -1.339,1.886 -1.749,3.046 H 9.827 C 9.39,40.494 8.748,39.47 7.977,38.6 H 5.235 C 4.067,38.6 2.909,38.268 1.904,37.654 H 1 v 2.922 c 0,1.291 0.84,2.686 1.523,3.276 0.543,0.47 1.694,0.946 2.712,0.946 H 42.78 c 2.325,0 4.235,-1.898 4.235,-4.222 V 36.973 C 45.892,37.984 44.407,38.6 42.78,38.6 h -2.877 z"
       id="path11"
       inkscape:connector-curvature="0"
       style="fill:#ffffff" /></g></svg>